<svg xmlns="http://www.w3.org/2000/svg" width="26.649" height="26.649" viewBox="0 0 26.649 26.649">
  <g id="fb" transform="translate(-1 -0.001)">
    <path id="Subtraction_1" data-name="Subtraction 1" d="M-6475.675-699.35a13.236,13.236,0,0,1-9.422-3.9,13.235,13.235,0,0,1-3.9-9.421,13.235,13.235,0,0,1,3.9-9.422,13.237,13.237,0,0,1,9.422-3.9,13.237,13.237,0,0,1,9.422,3.9,13.237,13.237,0,0,1,3.9,9.422,13.237,13.237,0,0,1-3.9,9.421A13.236,13.236,0,0,1-6475.675-699.35Zm-2.63-12.8v8.711h3.6v-8.711h2.377l.314-3.058h-2.692v-1.8a.737.737,0,0,1,.765-.835H-6472v-2.97l-2.667-.011a3.379,3.379,0,0,0-3.635,3.635v1.98h-1.713v3.062Z" transform="translate(6490 726)" fill="#999"/>
  </g>
</svg>
