<svg xmlns="http://www.w3.org/2000/svg" xmlns:xlink="http://www.w3.org/1999/xlink" width="27" height="27" viewBox="0 0 27 27">
  <defs>
    <clipPath id="clip-path">
      <circle id="Ellipse_8" data-name="Ellipse 8" cx="13.5" cy="13.5" r="13.5" transform="translate(265 3143)" fill="#868686"/>
    </clipPath>
  </defs>
  <g id="insta" transform="translate(-6521 -726.5)">
    <g id="Mask_Group_2" data-name="Mask Group 2" transform="translate(6256 -2416.5)" clip-path="url(#clip-path)">
      <path id="instagram-svgrepo-com" d="M13.5,10.815A2.685,2.685,0,1,0,16.185,13.5,2.688,2.688,0,0,0,13.5,10.815Zm0,0A2.685,2.685,0,1,0,16.185,13.5,2.688,2.688,0,0,0,13.5,10.815Zm4.473-4.378H9.027a2.593,2.593,0,0,0-2.59,2.59v8.945a2.593,2.593,0,0,0,2.59,2.59h8.945a2.593,2.593,0,0,0,2.59-2.59V9.027A2.593,2.593,0,0,0,17.973,6.438ZM13.5,18.15a4.65,4.65,0,1,1,4.65-4.65A4.655,4.655,0,0,1,13.5,18.15Zm4.8-8.338a1.1,1.1,0,1,1,1.1-1.1A1.1,1.1,0,0,1,18.3,9.812Zm-4.8,1A2.685,2.685,0,1,0,16.185,13.5,2.688,2.688,0,0,0,13.5,10.815Zm4.473-4.378H9.027a2.593,2.593,0,0,0-2.59,2.59v8.945a2.593,2.593,0,0,0,2.59,2.59h8.945a2.593,2.593,0,0,0,2.59-2.59V9.027A2.593,2.593,0,0,0,17.973,6.438ZM13.5,18.15a4.65,4.65,0,1,1,4.65-4.65A4.655,4.655,0,0,1,13.5,18.15Zm4.8-8.338a1.1,1.1,0,1,1,1.1-1.1A1.1,1.1,0,0,1,18.3,9.812Zm-4.8,1A2.685,2.685,0,1,0,16.185,13.5,2.688,2.688,0,0,0,13.5,10.815ZM0,0V27H27V0ZM22.527,17.973a4.559,4.559,0,0,1-4.554,4.554H9.027a4.559,4.559,0,0,1-4.554-4.554V9.027A4.559,4.559,0,0,1,9.027,4.473h8.945a4.559,4.559,0,0,1,4.554,4.554v8.945ZM17.973,6.438H9.027a2.593,2.593,0,0,0-2.59,2.59v8.945a2.593,2.593,0,0,0,2.59,2.59h8.945a2.593,2.593,0,0,0,2.59-2.59V9.027A2.593,2.593,0,0,0,17.973,6.438ZM13.5,18.15a4.65,4.65,0,1,1,4.65-4.65A4.655,4.655,0,0,1,13.5,18.15Zm4.8-8.338a1.1,1.1,0,1,1,1.1-1.1A1.1,1.1,0,0,1,18.3,9.812Zm-4.8,1A2.685,2.685,0,1,0,16.185,13.5,2.688,2.688,0,0,0,13.5,10.815Zm0,0A2.685,2.685,0,1,0,16.185,13.5,2.688,2.688,0,0,0,13.5,10.815Zm0,0A2.685,2.685,0,1,0,16.185,13.5,2.688,2.688,0,0,0,13.5,10.815Zm4.473-4.378H9.027a2.593,2.593,0,0,0-2.59,2.59v8.945a2.593,2.593,0,0,0,2.59,2.59h8.945a2.593,2.593,0,0,0,2.59-2.59V9.027A2.593,2.593,0,0,0,17.973,6.438ZM13.5,18.15a4.65,4.65,0,1,1,4.65-4.65A4.655,4.655,0,0,1,13.5,18.15Zm4.8-8.338a1.1,1.1,0,1,1,1.1-1.1A1.1,1.1,0,0,1,18.3,9.812Zm-4.8,1A2.685,2.685,0,1,0,16.185,13.5,2.688,2.688,0,0,0,13.5,10.815Zm0,0A2.685,2.685,0,1,0,16.185,13.5,2.688,2.688,0,0,0,13.5,10.815Zm0,0A2.685,2.685,0,1,0,16.185,13.5,2.688,2.688,0,0,0,13.5,10.815Zm4.473-4.378H9.027a2.593,2.593,0,0,0-2.59,2.59v8.945a2.593,2.593,0,0,0,2.59,2.59h8.945a2.593,2.593,0,0,0,2.59-2.59V9.027A2.593,2.593,0,0,0,17.973,6.438ZM13.5,18.15a4.65,4.65,0,1,1,4.65-4.65A4.655,4.655,0,0,1,13.5,18.15Zm4.8-8.338a1.1,1.1,0,1,1,1.1-1.1A1.1,1.1,0,0,1,18.3,9.812Zm-4.8,1A2.685,2.685,0,1,0,16.185,13.5,2.688,2.688,0,0,0,13.5,10.815Z" transform="translate(265 3143)" fill="#868686"/>
    </g>
  </g>
</svg>
