<svg xmlns="http://www.w3.org/2000/svg" width="125" height="95.451" viewBox="0 0 125 95.451">
  <g id="logo_white" data-name="logo white" transform="translate(-6178.5 -120.774)">
    <text id="Green_Sprout_Organic_Seeds" data-name="Green Sprout
Organic Seeds" transform="translate(6178.5 196.226)" fill="#fff" font-size="16" font-family="SergioTrendy-Regular, Sergio Trendy" letter-spacing="0.011em"><tspan x="0" y="0">Green Sprout</tspan><tspan x="0" y="16">Organic Seeds</tspan></text>
    <g id="seeds-fertilizer-svgrepo-com" transform="translate(6191.545 120.774)">
      <g id="Group_14" data-name="Group 14" transform="translate(39.6 44.284)">
        <g id="Group_13" data-name="Group 13" transform="translate(0)">
          <path id="Path_25" data-name="Path 25" d="M215.712,484.468a1.242,1.242,0,0,0-.075-.245,1.284,1.284,0,0,0-.12-.226,1.3,1.3,0,0,0-1.343-.557,1.369,1.369,0,0,0-.246.075,1.327,1.327,0,0,0-.225.121,1.267,1.267,0,0,0-.361.361,1.391,1.391,0,0,0-.12.226,1.331,1.331,0,0,0-.075.245,1.3,1.3,0,0,0-.026.257,1.309,1.309,0,0,0,2.619,0A1.3,1.3,0,0,0,215.712,484.468Z" transform="translate(-213.119 -483.415)" fill="#f5f5f5"/>
        </g>
      </g>
      <g id="Group_16" data-name="Group 16" transform="translate(42.334 40.355)">
        <g id="Group_15" data-name="Group 15">
          <path id="Path_26" data-name="Path 26" d="M245.556,441.578a1.312,1.312,0,0,0-.075-.245,1.377,1.377,0,0,0-.12-.226,1.314,1.314,0,0,0-.833-.556,1.3,1.3,0,0,0-.512,0,1.322,1.322,0,0,0-.67.357,1.3,1.3,0,0,0-.162.2,1.392,1.392,0,0,0-.12.226,1.328,1.328,0,0,0-.075.245,1.3,1.3,0,0,0,.075.757,1.371,1.371,0,0,0,.12.226,1.319,1.319,0,0,0,.162.2,1.249,1.249,0,0,0,.2.162,1.351,1.351,0,0,0,.227.12,1.328,1.328,0,0,0,.245.074,1.283,1.283,0,0,0,.255.026,1.313,1.313,0,0,0,1.089-.583,1.391,1.391,0,0,0,.12-.226,1.331,1.331,0,0,0,.075-.245,1.329,1.329,0,0,0,0-.512Z" transform="translate(-242.962 -440.525)" fill="#f5f5f5"/>
        </g>
      </g>
      <g id="Group_18" data-name="Group 18" transform="translate(45.069 44.284)">
        <g id="Group_17" data-name="Group 17" transform="translate(0)">
          <path id="Path_27" data-name="Path 27" d="M275.417,484.468a1.328,1.328,0,0,0-.075-.245,1.372,1.372,0,0,0-.12-.226,1.3,1.3,0,0,0-1.345-.557,1.387,1.387,0,0,0-.245.075,1.326,1.326,0,0,0-.225.121,1.311,1.311,0,0,0-.2.162,1.41,1.41,0,0,0-.164.2,1.389,1.389,0,0,0-.12.226,1.329,1.329,0,0,0-.075.245,1.3,1.3,0,0,0-.025.257,1.32,1.32,0,0,0,.384.926,1.26,1.26,0,0,0,.2.162,1.33,1.33,0,0,0,.225.12,1.384,1.384,0,0,0,.245.074,1.3,1.3,0,0,0,.257.026,1.28,1.28,0,0,0,.255-.026,1.324,1.324,0,0,0,.245-.074,1.3,1.3,0,0,0,.227-.12,1.265,1.265,0,0,0,.2-.162,1.3,1.3,0,0,0,.357-1.182Z" transform="translate(-272.824 -483.415)" fill="#f5f5f5"/>
        </g>
      </g>
      <g id="Group_20" data-name="Group 20" transform="translate(22.102)">
        <g id="Group_19" data-name="Group 19" transform="translate(0)">
          <path id="Path_28" data-name="Path 28" d="M64.572,19.632,45.323.384a1.309,1.309,0,0,0-1.852,0L22.485,21.369a1.31,1.31,0,0,0,0,1.852L37.471,38.207a1.31,1.31,0,0,0,.926.384h8.526a1.31,1.31,0,0,0,.926-.384L64.571,21.484A1.309,1.309,0,0,0,64.572,19.632Zm-17.15,15.3-11.4-11.4a1.31,1.31,0,1,0-1.852,1.852L44.76,35.972H38.939L25.263,22.3,44.4,3.161l17.4,17.4Z" transform="translate(-22.102)" fill="#f5f5f5"/>
        </g>
      </g>
      <g id="Group_22" data-name="Group 22" transform="translate(31.011 20.371)">
        <g id="Group_21" data-name="Group 21" transform="translate(0)">
          <path id="Path_29" data-name="Path 29" d="M121.956,223.423a1.349,1.349,0,0,0-.075-.245,1.323,1.323,0,0,0-.12-.225,1.26,1.26,0,0,0-.162-.2,1.322,1.322,0,0,0-.2-.164,1.387,1.387,0,0,0-.227-.12,1.327,1.327,0,0,0-.245-.075,1.3,1.3,0,0,0-.512,0,1.319,1.319,0,0,0-.245.075,1.388,1.388,0,0,0-.227.12,1.313,1.313,0,0,0-.2.164,1.246,1.246,0,0,0-.162.2,1.323,1.323,0,0,0-.12.225,1.358,1.358,0,0,0-.075.245,1.3,1.3,0,0,0-.025.257,1.287,1.287,0,0,0,.025.255,1.315,1.315,0,0,0,.075.245,1.4,1.4,0,0,0,.12.227,1.307,1.307,0,0,0,1.59.482,1.3,1.3,0,0,0,.708-.708,1.323,1.323,0,0,0,.075-.245,1.287,1.287,0,0,0,.025-.255A1.307,1.307,0,0,0,121.956,223.423Z" transform="translate(-119.363 -222.369)" fill="#f5f5f5"/>
        </g>
      </g>
      <g id="Group_24" data-name="Group 24" transform="translate(37.478 11.004)">
        <g id="Group_23" data-name="Group 23" transform="translate(0)">
          <path id="Path_30" data-name="Path 30" d="M204.68,123.811a3.191,3.191,0,0,0-1.411-.54,3.191,3.191,0,0,0-.54-1.411,4.493,4.493,0,0,0-5.231-1.4,3.2,3.2,0,0,0-1.173.952,3.192,3.192,0,0,0-1.492-.237A4.493,4.493,0,0,0,191,125a3.193,3.193,0,0,0,.238,1.492,3.2,3.2,0,0,0-.952,1.173,4.492,4.492,0,0,0,1.4,5.231,3.192,3.192,0,0,0,1.411.54,3.194,3.194,0,0,0,.54,1.411,4.493,4.493,0,0,0,3.607,1.742,3.843,3.843,0,0,0,1.624-.34,3.19,3.19,0,0,0,1.173-.952,3.189,3.189,0,0,0,1.492.237,4.492,4.492,0,0,0,3.829-3.829,3.193,3.193,0,0,0-.238-1.492,3.194,3.194,0,0,0,.952-1.174A4.492,4.492,0,0,0,204.68,123.811Zm-.972,4.124c-.15.321-.6.384-1.333.187a1.309,1.309,0,1,0-.678,2.529c.735.2,1.092.476,1.061.828a1.892,1.892,0,0,1-1.449,1.449c-.352.033-.631-.326-.828-1.061a1.309,1.309,0,1,0-2.53.678c.2.735.134,1.184-.186,1.333a1.892,1.892,0,0,1-1.979-.53c-.2-.29-.033-.71.505-1.248a1.309,1.309,0,0,0-1.852-1.852c-.538.538-.958.708-1.248.505a1.892,1.892,0,0,1-.53-1.979c.15-.321.6-.384,1.333-.186a1.309,1.309,0,1,0,.678-2.529c-.735-.2-1.092-.476-1.061-.828a1.892,1.892,0,0,1,1.449-1.449c.353-.032.631.326.828,1.061a1.309,1.309,0,1,0,2.53-.678c-.2-.735-.134-1.184.187-1.334a1.892,1.892,0,0,1,1.979.53c.2.29.033.71-.505,1.248a1.309,1.309,0,0,0,1.852,1.852c.538-.538.958-.708,1.248-.505A1.892,1.892,0,0,1,203.709,127.935Z" transform="translate(-189.948 -120.118)" fill="#f5f5f5"/>
        </g>
      </g>
    </g>
  </g>
</svg>
