<svg xmlns="http://www.w3.org/2000/svg" width="31.966" height="21.845" viewBox="0 0 31.966 21.845">
  <g id="seeds" transform="translate(0 -81.061)">
    <g id="Group_26" data-name="Group 26" transform="translate(0 92.25)">
      <g id="Group_25" data-name="Group 25" transform="translate(0 0)">
        <path id="Path_31" data-name="Path 31" d="M12.172,263.606c-.109-.136-2.7-3.339-6.017-3.339s-5.908,3.2-6.017,3.339a.637.637,0,0,0,0,.794c.109.136,2.7,3.339,6.017,3.339s5.908-3.2,6.017-3.339A.637.637,0,0,0,12.172,263.606Zm-6.017,2.86c-2.077,0-3.919-1.678-4.666-2.464.746-.786,2.581-2.462,4.666-2.462s3.918,1.678,4.666,2.464C10.076,264.79,8.241,266.466,6.156,266.466Z" transform="translate(0 -260.267)" fill="#323232"/>
      </g>
    </g>
    <g id="Group_28" data-name="Group 28" transform="translate(8.129 81.061)">
      <g id="Group_27" data-name="Group 27" transform="translate(0 0)">
        <path id="Path_32" data-name="Path 32" d="M144.678,93.68c-.038-.17-.977-4.182-3.963-5.626-2.524-1.221-5.579-.154-6.557.25-.78-.335-1.936-1.038-1.972-1.8a4.776,4.776,0,0,1,.645-2.017,4.794,4.794,0,0,0,.7-2.916.637.637,0,1,0-1.249.25,3.93,3.93,0,0,1-.607,2.122l-.029.061a2.721,2.721,0,0,1-.153-1.37.637.637,0,0,0-1.255-.216,3.451,3.451,0,0,0,.848,2.935,3.513,3.513,0,0,0-.177,1.211c.073,1.538,1.775,2.483,2.658,2.872.27.966,1.324,4.1,3.89,5.343a6.113,6.113,0,0,0,2.676.568,10.773,10.773,0,0,0,4.194-.955A.637.637,0,0,0,144.678,93.68Zm-6.661-.045c-1.87-.9-2.8-3.217-3.129-4.249,1.014-.383,3.4-1.093,5.273-.185s2.8,3.215,3.128,4.248C142.273,93.831,139.886,94.539,138.017,93.635Z" transform="translate(-130.197 -81.061)" fill="#323232"/>
      </g>
    </g>
    <g id="Group_30" data-name="Group 30" transform="translate(19.942 95.349)">
      <g id="Group_29" data-name="Group 29" transform="translate(0 0)">
        <path id="Path_33" data-name="Path 33" d="M331.191,311.939c-.137-.108-3.386-2.641-6.617-1.89s-5.029,4.458-5.1,4.615a.637.637,0,0,0,.18.773,9.863,9.863,0,0,0,5.375,2.029,5.475,5.475,0,0,0,1.242-.139c3.23-.751,5.029-4.458,5.1-4.615A.637.637,0,0,0,331.191,311.939Zm-5.213,4.148c-2.023.47-4.2-.747-5.1-1.343.549-.934,1.957-2.983,3.988-3.455s4.2.747,5.1,1.343C329.417,313.567,328.009,315.615,325.978,316.087Z" transform="translate(-319.408 -309.91)" fill="#323232"/>
      </g>
    </g>
    <g id="Group_32" data-name="Group 32" transform="translate(26.611 97.48)">
      <g id="Group_31" data-name="Group 31" transform="translate(0 0)">
        <path id="Path_34" data-name="Path 34" d="M427.954,344.4a5.106,5.106,0,0,0-.95-.346.637.637,0,0,0-.309,1.236,3.835,3.835,0,0,1,.712.261.637.637,0,0,0,.547-1.15Z" transform="translate(-426.212 -344.034)" fill="#323232"/>
      </g>
    </g>
    <g id="Group_34" data-name="Group 34" transform="translate(23.511 97.672)">
      <g id="Group_33" data-name="Group 33" transform="translate(0 0)">
        <path id="Path_35" data-name="Path 35" d="M378.73,347.449a.637.637,0,0,0-.862-.261,4.238,4.238,0,0,0-1.134.912.637.637,0,1,0,.946.853,2.974,2.974,0,0,1,.789-.642A.637.637,0,0,0,378.73,347.449Z" transform="translate(-376.569 -347.112)" fill="#323232"/>
      </g>
    </g>
  </g>
</svg>
