<svg id="sprout" xmlns="http://www.w3.org/2000/svg" width="22" height="22" viewBox="0 0 22 22">
  <path id="Path_36" data-name="Path 36" d="M19.07,2a7.574,7.574,0,0,0-7.047,4.832,4.811,4.811,0,0,0-3.959-2.08H6V6.815a4.821,4.821,0,0,0,4.815,4.815H11.5v6.225a6.826,6.826,0,0,0-4.176,1.981l.973.973a5.5,5.5,0,0,1,8.467.835l1.143-.765a6.865,6.865,0,0,0-5.031-3.014V11.63h.688a7.575,7.575,0,0,0,7.567-7.567V2Zm-8.255,8.255A3.443,3.443,0,0,1,7.376,6.815V6.127h.688A3.443,3.443,0,0,1,11.5,9.567v.688Zm8.942-6.191a6.2,6.2,0,0,1-6.191,6.191h-.688V9.567A6.2,6.2,0,0,1,19.07,3.376h.688Z" transform="translate(-1.873 -0.624)"/>
  <rect id="_Transparent_Rectangle_" data-name="&lt;Transparent Rectangle&gt;" width="22" height="22" fill="none"/>
</svg>
