<svg xmlns="http://www.w3.org/2000/svg" width="23.204" height="19.649" viewBox="0 0 23.204 19.649">
  <g id="twitter" transform="translate(-0.003 -41.648)">
    <g id="Group_5" data-name="Group 5" transform="translate(0.003 41.648)">
      <path id="Path_5" data-name="Path 5" d="M22.523,44.424q-.172.05-.343.094c-.7.177-.764-.056-.257-.57a4.665,4.665,0,0,0,.6-.751c.39-.607.052-.871-.612-.588q-.355.152-.721.275a3.016,3.016,0,0,1-2.263-.5,5.007,5.007,0,0,0-6.13.719,4.78,4.78,0,0,0-1.451,3.508,5.237,5.237,0,0,0,.032.571c.035.314-.494.542-1.209.441a13.722,13.722,0,0,1-4.4-1.4,14.121,14.121,0,0,1-3.652-2.686c-.5-.516-1.187-.471-1.375.225a4.968,4.968,0,0,0-.169,1.3,4.83,4.83,0,0,0,.6,2.364,5.076,5.076,0,0,0,.7.982c.449.493.38.779-.245.6A8.053,8.053,0,0,1,.54,48.587v.031a4.79,4.79,0,0,0,1.128,3.154,4.935,4.935,0,0,0,1.615,1.292c.646.32.948.5.586.546a5.125,5.125,0,0,1-.658.042q-.224,0-.47-.021c-.259-.022-.305.517.087,1.122a4.965,4.965,0,0,0,1.2,1.27,4.852,4.852,0,0,0,1.6.8c.694.2.833.558.214.929A9.689,9.689,0,0,1,.755,59.133q-.314,0-.6-.014c-.331-.016-.109.276.53.61A13.769,13.769,0,0,0,7.171,61.3a14.5,14.5,0,0,0,4.958-.836,12.61,12.61,0,0,0,3.96-2.241,15,15,0,0,0,2.832-3.231A14.413,14.413,0,0,0,20.7,51.174a14.1,14.1,0,0,0,.583-3.984c0-.12,0-.228,0-.322,0-.178.468-.66.994-1.154q.356-.334.68-.7C23.427,44.47,23.215,44.222,22.523,44.424Z" transform="translate(-0.003 -41.648)" fill="#999"/>
    </g>
  </g>
</svg>
