<svg xmlns="http://www.w3.org/2000/svg" width="13.5" height="31.5" viewBox="0 0 13.5 31.5">
  <g id="wheat" transform="translate(-9.25 -0.25)">
    <path id="Path_16" data-name="Path 16" d="M16,16h0a6.018,6.018,0,0,1-6-6h0a6.018,6.018,0,0,1,6,6Z" fill="none" stroke="#323232" stroke-linecap="round" stroke-linejoin="round" stroke-miterlimit="10" stroke-width="1.5"/>
    <path id="Path_17" data-name="Path 17" d="M16,16h0a6.018,6.018,0,0,0,6-6h0a6.018,6.018,0,0,0-6,6Z" fill="none" stroke="#323232" stroke-linecap="round" stroke-linejoin="round" stroke-miterlimit="10" stroke-width="1.5"/>
    <path id="Path_18" data-name="Path 18" d="M16,13.2h0a6.1,6.1,0,0,0,0-8.5h0a6.1,6.1,0,0,0,0,8.5Z" fill="none" stroke="#323232" stroke-linecap="round" stroke-linejoin="round" stroke-miterlimit="10" stroke-width="1.5"/>
    <path id="Path_19" data-name="Path 19" d="M16,21h0a6.018,6.018,0,0,1-6-6h0a6.018,6.018,0,0,1,6,6Z" fill="none" stroke="#323232" stroke-linecap="round" stroke-linejoin="round" stroke-miterlimit="10" stroke-width="1.5"/>
    <path id="Path_20" data-name="Path 20" d="M16,21h0a6.018,6.018,0,0,0,6-6h0a6.018,6.018,0,0,0-6,6Z" fill="none" stroke="#323232" stroke-linecap="round" stroke-linejoin="round" stroke-miterlimit="10" stroke-width="1.5"/>
    <path id="Path_21" data-name="Path 21" d="M16,26h0a6.018,6.018,0,0,1-6-6h0a6.018,6.018,0,0,1,6,6Z" fill="none" stroke="#323232" stroke-linecap="round" stroke-linejoin="round" stroke-miterlimit="10" stroke-width="1.5"/>
    <path id="Path_22" data-name="Path 22" d="M16,26h0a6.018,6.018,0,0,0,6-6h0a6.018,6.018,0,0,0-6,6Z" fill="none" stroke="#323232" stroke-linecap="round" stroke-linejoin="round" stroke-miterlimit="10" stroke-width="1.5"/>
    <line id="Line_4" data-name="Line 4" y1="5" transform="translate(16 26)" fill="none" stroke="#323232" stroke-linecap="round" stroke-linejoin="round" stroke-miterlimit="10" stroke-width="1.5"/>
    <line id="Line_5" data-name="Line 5" y1="4" transform="translate(16 1)" fill="none" stroke="#323232" stroke-linecap="round" stroke-linejoin="round" stroke-miterlimit="10" stroke-width="1.5"/>
    <line id="Line_6" data-name="Line 6" y1="6" transform="translate(21 4)" fill="none" stroke="#323232" stroke-linecap="round" stroke-linejoin="round" stroke-miterlimit="10" stroke-width="1.5"/>
    <line id="Line_7" data-name="Line 7" y1="6" transform="translate(11 4)" fill="none" stroke="#323232" stroke-linecap="round" stroke-linejoin="round" stroke-miterlimit="10" stroke-width="1.5"/>
  </g>
</svg>
